<?xml version="1.0" encoding="UTF-8"?>
<svg version="1.1" viewBox="0 0 1208.5 488.43" xmlns="http://www.w3.org/2000/svg">
 <g transform="translate(.5)" fill-rule="evenodd">
  <path d="m240 0a240.5 240.5 0 1 1 0 481 240.5 240.5 0 0 1 0-481z" fill="#f00f0f"/>
  <path d="m230 162h-32l-2 3 1 3 5 1 12 3c2 1 4 4 5 7l1 14-1 27-2 34c-1 18-3 61-7 74l-6 6-9 2-6 1-1 4c0 1 0 2 2 3l14-1h29l15 1 2-3-2-4-10-1-8-2-2-4c-2-5-3-14-2-19v-35l1-30 2-24 1-24h1c3 6 6 12 8 20l9 19 25 53 8 17 9 20a168 168 0 0 1 7 18h5l8-17 22-46 24-47 7-14a437 437 0 0 1 11-22l1 114v14c-1 2-1 5-4 6-1 2-4 3-9 3l-8 1-1 4 1 3 18-1h31l17 1 2-3-1-4-9-1c-4 0-7-1-9-3l-4-7v-12l-4-84v-35l2-15c0-3 2-6 5-8 2-1 7-3 13-3l5-1 1-3-1-3h-45c0 6-2 13-6 21l-15 31-26 52c-6 15-12 28-21 42l-19-38-31-63-11-25c-3-8-4-15-3-20zm-152 141-1 22c-1 9-7 12-16 13l-6 1c-1 1-1 5 1 7l34-1 37 1 1-4-1-3-8-1c-6-1-10-2-12-4h-1c-2-2-3-5-4-9l-1-22v-26l-23-1zm-24-138 1 4 10 1c4 1 7 2 9 4 2 1 3 4 4 8v74h23v-77l1-7c0-1 2-3 4-3h11c14 0 25 4 33 12 7 8 11 19 11 32 1 12-3 22-9 31-6 7-14 12-25 15a695 695 0 0 1-106 0l52 9a195 195 0 0 0 78-7l20-12c4-3 8-8 12-14a53 53 0 0 0-18-64c-7-4-14-7-23-9l-31-2h-31l-24 2z" fill="#fff"/>
 </g>
 <path d="m552.5 139 21 2v36c0 17 3 20 21 21l5 5-5 3h-58l-6-3 4-3c15-3 18-6 18-22zm624 54-2 5c-11 9-29 12-41 6-8-4-11-11-11-22v-57c0-15 0-15-16-16l6-6c10-3 17-10 21-19l4-4 3 6c0 13 0 11 13 11h18c3 0 5 0 5 5 0 4-1 5-5 5h-23c-5 0-8 2-8 6 0 20 0 42 2 62 1 16 14 22 29 15 1-2 3-2 4-2zm-425-86 30-14c0 7 0 13 2 19 5-5 10-7 14-10 6-3 12-5 19-5s10 8 7 15c-3 6-9 8-14 6-2 0-3-2-5-3-11-6-20-2-20 11v62c0 6 4 9 9 9h7l4 3-4 3c-12 0-23 0-36-2-4 0-7 2-12 0l-4-3c1-1 1-3 3-3 13-4 13-4 13-17v-52c0-7 0-14-9-19-1 3-3 2-4 0zm252 50c0-34 22-57 52-60 10-1 19 0 29 2 9 1 12 7 10 14 0 3-1 6-4 6l-6-3c-9-9-19-14-32-11-8 1-15 7-21 14-19 27-3 69 29 72 13 2 23-1 31-11l6-3v7c-9 17-30 24-52 22-20-3-34-19-39-38zm-44-21h-26c-10 0-10 0-10 10 1 25 14 42 36 47 11 1 20 0 28-9l6-3-1 7c-10 16-31 23-51 19-18-4-33-19-36-39-3-22 0-43 18-59 17-16 46-17 60-3l7 10c6 15 3 19-11 19zm-34-8h41c3 0 10-3 10-5 0-4-2-10-4-13-8-5-16-5-25-3-11 3-19 9-22 21zm-222 8h-29c-2 0-5 3-5 5-5 24 14 50 40 52 9 0 17-3 25-9 1-2 4-3 7-3 0 3 0 6-2 9a46 46 0 0 1-49 17c-18-3-30-14-36-32-10-30 5-63 32-75 16-6 30-6 45 6 4 3 7 7 8 12 6 13 2 18-11 18zm-31-8h38c3 0 9-3 11-5 2-5 0-11-6-14s-13-4-19-3c-13 0-24 12-24 22zm373 228h-29c-3 0-7 2-7 4-1 23 10 50 42 52 8 0 16-3 23-9l7-4-3 9a47 47 0 0 1-49 17c-20-4-30-17-36-36-7-32 9-64 38-72 20-6 39 0 47 16l3 5c4 12 2 16-11 16-8 2-16 2-25 2zm-33-9h40c3 0 10-3 10-4 0-5-1-10-4-13-7-8-16-8-26-3-10 3-17 8-20 20zm140 52 20-48c3-5 4-10 6-16 1-5 0-8-6-10l-6-1-3-4 3-2h39c2 0 3 2 3 3-1 1-1 4-3 4-11 2-16 10-20 19l-62 130c-6 11-12 16-20 14-6-1-10-4-10-10s3-11 8-11c13 1 18-8 22-16l1-2c12-17 13-34 5-53-9-17-15-36-20-55-3-8-8-16-18-17l-4-4 4-3h42l4 3-4 4c-10 4-10 4-7 14l17 49c6 5 7 8 9 12zm-292-29c0 33-21 56-56 58-30 0-55-23-55-55 0-33 23-58 57-58 31 0 54 23 54 55zm-88 1c0 13 3 29 16 41 12 10 29 10 39-2 16-20 15-60-4-79a27 27 0 0 0-41 3c-7 10-10 23-10 37z" fill="#fff" stroke-width="14.4"/>
 <path d="m835.5 109c1-2 2-4 5-4 9-3 10-9 12-18 1-17 4-34 14-49 13-17 32-26 52-20 5 1 10 4 13 9 5 4 3 8-1 13-5 4-9 3-13 0l-6-6c-13-10-29-7-33 10l-6 27v25c0 6 1 7 7 7h28c3 9 1 10-8 10h-21c-2 0-6 3-6 6v71c0 7 3 10 10 11h4l6 5-6 2h-36c-4 0-7 2-11 0l-4-2 2-3c13-5 15-6 15-19v-58c0-10 0-10-10-10h-5zm-262 11h-21v-64c0-13-3-15-16-18-3 0-4-3-7-4 3-2 4-3 7-3h72c35 3 53 32 45 63-6 19-20 26-36 32-25 9-49 9-74 5l-33-5h46c15 0 29-1 43-4 23-4 35-23 32-46-3-26-16-38-42-39h-1c-15 0-15 0-15 14zm326 192 2 18c7-3 11-8 17-9 7-3 16-6 25-6 18 0 28 13 28 32v58c0 8 3 11 12 13l6 4-6 3h-40l-6-3 6-4c7-2 10-6 10-12v-53c0-16-10-25-26-23-16 0-25 8-25 24v51c0 10 2 11 12 14l4 4-4 3h-42c-2 0-3-1-4-3l2-4c12-3 12-4 12-16v-55c0-7-1-11-7-15-5-3-5-5 1-8zm-192-63h38l4 3-4 4h-3c-14 3-17 6-17 22l3 125c0 10 4 15 14 15h3l4 3-4 2h-56l-5-2c2-2 3-3 5-3 16-2 16-3 16-19v-113l-3-1c-23 46-46 94-71 141-23-49-45-95-66-143h-2c-1 16-3 31-3 47l-1 62v8c1 12 4 15 16 15h3l4 3-4 3h-51l-4-3c1-2 1-3 3-3 17-5 18-6 20-23l7-117c2-17-1-17-17-22l-6-4c1-2 4-3 6-3h36c13 50 43 92 65 140 26-43 52-88 70-137z" fill="#fff" stroke-width="14.4"/>
</svg>
